<?xml version="1.0" standalone="no"?>
<!DOCTYPE svg PUBLIC "-//W3C//DTD SVG 20010904//EN"
 "http://www.w3.org/TR/2001/REC-SVG-20010904/DTD/svg10.dtd">
<svg version="1.0" xmlns="http://www.w3.org/2000/svg"
 width="498.000000pt" height="499.000000pt" viewBox="0 0 498.000000 499.000000"
 preserveAspectRatio="xMidYMid meet">

<g transform="translate(0.000000,499.000000) scale(0.100000,-0.100000)"
fill="#000000" stroke="none">
<path d="M2386 4169 c-72 -25 -136 -68 -156 -103 -9 -18 -19 -25 -29 -21 -35
14 -162 17 -227 6 -125 -22 -225 -86 -270 -172 -24 -48 -22 -143 5 -200 54
-113 189 -186 276 -149 15 6 8 9 -29 9 -95 2 -175 75 -198 182 -14 68 -6 114
32 171 36 54 87 90 169 117 98 34 264 41 246 11 -11 -17 1 -11 36 20 87 75
210 104 351 82 89 -14 133 -36 195 -98 29 -28 54 -47 56 -41 2 8 34 12 88 12
98 0 144 -19 214 -89 53 -54 70 -114 51 -187 -30 -114 -75 -139 -246 -139
l-122 0 7 68 c3 37 8 77 11 90 6 31 -3 27 -23 -10 -22 -42 -24 -217 -4 -331 8
-42 12 -80 9 -82 -2 -3 -20 0 -39 5 -19 6 -77 13 -131 16 -206 14 -442 -50
-545 -147 -45 -41 -41 -44 13 -10 63 41 157 77 247 95 139 29 438 15 469 -21
8 -10 12 -70 12 -188 1 -150 -1 -176 -15 -187 -23 -18 -34 -58 -17 -58 20 0
38 21 38 44 0 11 7 27 16 37 36 40 27 319 -17 519 -10 47 -19 100 -19 119 l0
33 43 -6 c23 -3 80 -8 127 -12 75 -6 91 -4 125 14 109 55 155 188 104 297 -29
62 -116 139 -180 160 -71 24 -169 24 -204 1 -27 -17 -28 -17 -38 -1 -17 32
-78 94 -112 115 -85 52 -216 64 -319 29z"/>
<path d="M2476 4047 c-27 -12 -23 -13 45 -12 63 0 81 -4 120 -27 120 -71 118
-189 -4 -218 -32 -8 -32 -8 10 -9 31 -1 49 5 72 25 32 27 49 80 36 111 -5 10
-7 23 -7 28 3 20 -73 84 -117 100 -52 18 -115 19 -155 2z"/>
<path d="M1866 3866 c-29 -62 -14 -138 35 -182 28 -24 66 -36 75 -23 3 5 -1 9
-9 9 -19 0 -63 49 -77 85 -7 18 -9 53 -5 88 3 31 4 57 2 57 -3 0 -12 -15 -21
-34z"/>
<path d="M3097 3860 c4 -14 8 -46 8 -72 0 -65 -36 -102 -119 -122 -34 -8 -52
-15 -41 -16 11 -1 31 -3 44 -6 109 -20 190 128 119 217 l-19 24 8 -25z"/>
<path d="M2305 3736 c-63 -17 -101 -32 -143 -58 -41 -25 -35 -34 11 -15 63 27
205 57 269 58 62 1 62 1 33 14 -37 17 -104 17 -170 1z"/>
<path d="M2036 3583 c-11 -50 -20 -376 -9 -370 5 4 8 -7 5 -25 -8 -54 40 -271
81 -370 18 -43 15 -48 -29 -48 -42 0 -64 23 -64 67 0 40 -17 41 -39 2 -20 -36
-6 -96 30 -130 28 -26 126 -53 155 -42 6 2 21 -11 33 -31 37 -59 132 -139 191
-160 103 -37 246 -17 338 46 49 34 94 98 117 167 14 44 17 47 67 59 28 6 63
19 77 28 l25 17 -22 8 c-12 5 -22 12 -22 16 0 4 -5 15 -10 23 -8 12 -14 10
-40 -15 -24 -23 -34 -27 -47 -19 -12 7 -26 8 -45 0 -38 -14 -51 0 -38 43 12
43 -7 37 -32 -10 -18 -34 -19 -34 -91 -35 -39 -1 -76 -3 -82 -4 -20 -3 160
-60 192 -60 21 0 33 -5 33 -14 0 -27 -31 -87 -66 -125 -43 -48 -98 -75 -185
-90 -116 -20 -209 13 -291 103 -43 47 -48 66 -15 66 12 0 57 20 99 44 42 24
85 46 94 50 15 6 15 8 -2 27 -13 15 -19 36 -19 69 0 27 -3 51 -6 54 -12 12
-79 -16 -163 -69 -49 -31 -92 -52 -97 -48 -13 14 -68 211 -83 301 -9 48 -18
179 -21 292 -4 113 -8 206 -10 208 -1 1 -5 -10 -9 -25z"/>
<path d="M2300 3466 c-90 -26 -147 -53 -153 -70 -4 -9 6 -8 33 5 46 22 190 55
282 65 37 4 65 11 62 15 -10 17 -148 8 -224 -15z"/>
<path d="M3087 3277 c67 -73 163 -205 163 -225 0 -16 28 -34 34 -23 14 23 -82
164 -158 234 -90 81 -107 88 -39 14z"/>
<path d="M3646 3208 c-9 -12 -16 -35 -16 -51 l0 -29 -42 36 c-23 20 -45 36
-48 36 -11 0 -30 -49 -30 -77 0 -14 11 -47 24 -73 l24 -48 -36 -6 c-21 -3 -64
-6 -98 -6 l-61 0 -12 -39 c-6 -22 -27 -53 -46 -70 -19 -17 -35 -33 -35 -35 0
-29 157 -49 200 -26 27 14 32 0 32 -86 -1 -89 -18 -124 -60 -124 -15 0 -32 4
-39 8 -18 11 -33 58 -33 101 0 41 -32 84 -72 97 -26 8 -32 0 -54 -66 -31 -96
-24 -160 31 -275 64 -135 74 -172 64 -233 -12 -81 -59 -155 -59 -95 0 43 -34
90 -70 98 -69 15 -127 -41 -114 -110 8 -44 54 -85 96 -85 27 0 29 -2 17 -16
-19 -23 -58 -40 -121 -54 -102 -20 -231 9 -322 73 -16 12 -26 15 -22 9 14 -23
83 -61 151 -83 54 -17 84 -21 158 -17 113 5 152 24 223 105 80 91 89 114 89
218 0 88 -1 93 -53 201 -45 96 -52 118 -51 170 0 32 6 74 13 93 l12 34 27 -24
c20 -18 30 -38 36 -77 9 -59 38 -96 83 -107 22 -6 33 -1 57 22 34 35 46 93 37
175 -4 29 -7 65 -8 80 l-1 27 -25 -19 c-35 -28 -172 -28 -172 0 0 5 8 11 19
15 10 3 26 21 36 39 18 34 19 34 104 38 101 6 110 -1 111 -77 0 -27 5 -57 11
-65 8 -12 9 -10 4 8 -4 13 -1 54 6 93 l12 70 -35 37 c-20 20 -40 46 -46 57
-14 29 -21 80 -12 95 13 21 98 -66 129 -133 l27 -58 -17 -52 c-10 -29 -18 -77
-18 -107 l1 -55 18 70 c10 39 24 88 32 110 15 39 14 41 -24 113 -39 75 -46
106 -27 132 9 12 12 12 16 2 11 -27 63 -79 98 -98 l37 -19 -7 -75 c-4 -41 -9
-97 -11 -123 -2 -27 -9 -57 -14 -67 -6 -10 -10 -29 -10 -42 0 -18 4 -15 20 17
24 50 39 68 68 84 22 12 23 16 16 96 -7 82 -6 84 22 111 l28 29 13 -78 c7 -42
20 -94 28 -113 22 -53 19 -67 -21 -115 -45 -55 -64 -92 -104 -209 -57 -168
-98 -223 -186 -252 -42 -14 -45 -17 -20 -17 16 -1 49 8 73 20 73 35 111 94
178 274 21 55 53 122 72 148 50 70 53 85 33 137 -10 25 -21 70 -24 100 -16
134 -15 131 -44 124 -15 -4 -39 -18 -54 -32 -16 -14 -28 -20 -28 -14 0 6 -17
21 -39 31 -21 11 -55 43 -76 71 -20 27 -41 50 -45 50 -5 0 -16 -10 -24 -22z
m177 -320 c-9 -10 -20 -15 -25 -12 -6 4 -6 10 1 17 6 6 11 22 11 37 0 14 3 36
7 50 6 21 8 17 15 -25 5 -39 4 -53 -9 -67z m-593 -688 c25 -25 28 -105 4 -114
-54 -21 -104 12 -104 68 0 58 60 86 100 46z"/>
<path d="M2633 3170 c-33 -8 -63 -26 -63 -40 0 -4 29 -5 64 -3 46 4 72 1 95
-10 24 -12 31 -12 31 -3 0 35 -73 67 -127 56z"/>
<path d="M1873 3107 c-41 -68 -77 -147 -100 -222 -14 -48 -18 -92 -18 -215 1
-148 2 -159 32 -246 56 -160 163 -312 279 -393 l49 -35 -65 70 c-85 90 -129
152 -179 249 -98 196 -116 417 -51 629 11 33 19 63 19 66 0 3 16 36 35 74 20
39 34 71 33 73 -2 1 -17 -21 -34 -50z"/>
<path d="M2281 3128 c-44 -23 -71 -51 -59 -63 3 -3 21 3 40 15 19 11 63 23 97
26 53 6 60 9 48 21 -25 25 -78 26 -126 1z"/>
<path d="M2984 2954 c3 -9 6 -25 6 -35 0 -16 4 -19 23 -13 31 9 32 10 13 39
-18 28 -52 35 -42 9z"/>
<path d="M2575 2943 c-11 -3 -31 -16 -45 -29 -18 -17 -29 -20 -40 -14 -25 16
-30 11 -30 -30 0 -52 30 -85 68 -75 42 10 72 33 72 55 0 30 37 62 68 58 25 -3
27 -6 24 -45 -2 -24 1 -43 5 -43 16 0 33 24 33 45 0 12 5 26 10 31 20 20 -118
59 -165 47z"/>
<path d="M1531 2884 c0 -11 3 -14 6 -6 3 7 2 16 -1 19 -3 4 -6 -2 -5 -13z"/>
<path d="M2630 2871 c-13 -25 -13 -48 1 -56 13 -9 15 -7 34 38 15 35 14 37 -5
37 -10 0 -24 -9 -30 -19z"/>
<path d="M2998 2866 c-14 -32 -4 -63 16 -47 8 7 19 25 25 42 9 26 8 29 -10 29
-11 0 -24 -11 -31 -24z"/>
<path d="M1520 2848 c0 -7 -5 -58 -10 -112 -17 -178 21 -394 99 -562 112 -238
311 -427 548 -520 148 -58 263 -77 438 -71 162 5 247 22 381 78 207 86 391
267 488 481 51 111 52 133 3 40 -186 -347 -518 -552 -897 -552 -277 0 -504 90
-705 281 -211 201 -339 522 -336 847 1 56 -1 102 -4 102 -3 0 -5 -6 -5 -12z"/>
<path d="M2884 2844 c3 -9 6 -18 6 -21 0 -3 7 0 15 7 21 18 19 30 -6 30 -15 0
-19 -4 -15 -16z"/>
<path d="M2586 2701 c-10 -15 -72 -22 -115 -12 -52 11 -55 -4 -4 -25 22 -10
51 -14 71 -10 34 5 72 31 72 48 0 11 -17 10 -24 -1z"/>
<path d="M2915 2584 c38 -56 33 -145 -10 -188 -15 -15 -20 -15 -39 -2 -32 20
-104 29 -151 18 -39 -10 -39 -10 23 -11 80 -1 123 -21 170 -79 20 -25 54 -64
75 -88 l37 -42 -42 -17 c-30 -11 -56 -15 -88 -10 -53 7 -210 84 -210 102 0 16
10 16 47 2 l28 -10 -24 25 -24 26 42 0 c53 0 45 15 -16 30 -39 9 -51 17 -63
43 -8 18 -24 34 -35 36 -17 3 -18 2 -5 -14 15 -19 22 -137 8 -150 -4 -4 -36
-10 -70 -12 l-64 -5 4 66 c4 54 1 71 -13 86 -10 11 -24 20 -32 20 -9 0 -7 -6
7 -20 41 -41 11 -155 -54 -204 -40 -31 -143 -63 -228 -71 l-66 -6 14 48 c23
75 54 132 85 155 15 12 25 26 22 31 -3 6 -1 7 5 3 6 -4 22 0 35 8 12 9 50 22
82 31 l60 15 -70 -4 c-47 -2 -84 -10 -114 -25 -49 -26 -53 -23 -73 41 -9 31
-8 45 5 80 18 46 13 64 -9 33 -36 -49 -39 -120 -6 -176 14 -25 13 -29 -5 -55
-12 -16 -28 -53 -37 -83 -9 -30 -25 -70 -36 -89 -26 -44 -14 -55 50 -46 150
20 273 64 310 112 20 25 25 26 98 24 54 -2 86 2 105 12 28 15 31 14 93 -23 36
-22 88 -45 116 -51 92 -23 218 6 218 50 0 10 -9 21 -20 25 -11 3 -48 38 -83
76 l-63 71 33 33 c29 29 33 40 33 84 0 63 -34 131 -66 131 -9 0 -5 -12 11 -36z"/>
<path d="M2403 2321 c-55 -9 -123 -41 -123 -58 0 -17 17 -17 70 2 62 22 68 19
30 -15 l-35 -31 50 25 c56 27 90 59 80 75 -7 12 -9 12 -72 2z"/>
<path d="M2320 1850 l0 -60 30 0 c17 0 30 5 30 10 0 6 -11 10 -25 10 -16 0
-25 6 -25 15 0 8 9 15 20 15 11 0 20 5 20 10 0 6 -9 10 -20 10 -11 0 -20 7
-20 15 0 9 9 15 25 15 14 0 25 5 25 10 0 6 -13 10 -30 10 l-30 0 0 -60z"/>
<path d="M2567 1904 c-4 -4 -7 -14 -7 -23 0 -12 3 -12 12 -3 32 32 38 -2 8
-41 -28 -35 -25 -47 10 -47 17 0 30 5 30 10 0 6 -9 10 -20 10 -20 0 -20 1 2
30 17 24 20 35 12 48 -12 19 -36 27 -47 16z"/>
<path d="M2652 1898 c-17 -17 -15 -83 3 -98 34 -29 66 29 46 83 -11 29 -30 34
-49 15z m33 -48 c0 -18 -6 -35 -12 -37 -9 -3 -13 8 -13 37 0 29 4 40 13 38 6
-3 12 -20 12 -38z"/>
<path d="M2730 1895 c-7 -8 -9 -19 -5 -23 4 -4 10 -1 12 6 6 17 33 15 33 -2 0
-8 -11 -28 -25 -44 -14 -17 -25 -33 -25 -36 0 -3 16 -6 35 -6 19 0 35 5 35 10
0 6 -9 10 -21 10 -20 0 -20 0 2 31 17 24 20 36 12 48 -14 22 -37 25 -53 6z"/>
<path d="M2823 1903 c-7 -2 -13 -12 -13 -21 0 -12 3 -13 12 -4 32 32 39 -6 8
-45 -28 -36 -25 -43 15 -43 19 0 35 5 35 10 0 6 -9 10 -20 10 -24 0 -26 13 -5
30 20 16 19 56 -1 64 -9 3 -16 6 -17 5 -1 0 -8 -3 -14 -6z"/>
<path d="M2468 1888 c-3 -7 -1 -32 4 -55 9 -42 20 -53 33 -33 3 6 1 10 -4 10
-14 0 -14 47 -1 55 6 4 5 12 -4 21 -18 17 -23 18 -28 2z"/>
<path d="M2403 1864 c-4 -11 2 -23 18 -36 l24 -20 -29 7 c-26 5 -28 4 -17 -9
17 -21 40 -20 48 0 4 11 -3 24 -18 36 l-24 20 23 -5 c15 -4 22 -1 19 6 -6 19
-36 20 -44 1z"/>
<path d="M2178 1525 c-59 -33 -111 -209 -112 -387 -1 -85 2 -110 15 -123 24
-25 46 -8 59 45 16 65 64 140 90 140 15 0 20 -7 20 -25 0 -19 -10 -31 -36 -47
-32 -19 -35 -24 -30 -52 10 -48 39 -71 91 -71 37 0 50 6 79 34 65 63 60 115
-5 56 -42 -38 -69 -44 -89 -20 -11 13 -8 21 18 48 43 44 50 84 22 120 -12 15
-29 27 -38 27 -33 0 -82 -40 -104 -85 -12 -25 -26 -45 -31 -45 -20 0 8 67 49
117 92 113 119 217 68 267 -19 19 -31 20 -66 1z m40 -83 c4 -44 -65 -189 -81
-172 -8 7 20 132 38 176 18 43 39 41 43 -4z"/>
<path d="M3593 1525 c-26 -18 -58 -100 -73 -187 -12 -62 -13 -63 -59 -85 -26
-13 -54 -35 -64 -53 -21 -35 -67 -43 -67 -11 0 30 -38 70 -74 77 -44 8 -91
-17 -118 -62 -21 -35 -48 -46 -48 -18 0 24 -65 84 -90 84 -73 0 -138 -82 -127
-162 7 -54 36 -91 79 -102 47 -12 93 14 121 67 20 40 47 50 47 17 0 -11 13
-34 29 -52 24 -27 36 -33 70 -33 45 0 95 38 105 81 9 36 33 29 40 -11 7 -36
46 -75 77 -75 9 0 31 12 49 26 l31 26 24 -26 c13 -14 33 -26 43 -26 29 0 101
57 108 86 11 43 -9 47 -45 9 -35 -37 -50 -42 -69 -23 -20 20 -14 52 32 149 69
149 86 259 46 299 -24 24 -38 25 -67 5z m45 -83 c4 -36 -18 -128 -44 -187
l-18 -40 -4 30 c-5 37 16 179 30 211 15 32 32 25 36 -14z m-638 -261 c0 -16 7
-34 15 -41 20 -16 19 -39 -2 -62 -36 -40 -78 -11 -77 54 2 64 64 112 64 49z
m244 -5 c4 -19 13 -39 21 -46 23 -19 -7 -70 -41 -70 -44 0 -61 93 -24 130 28
28 37 25 44 -14z m266 -24 c0 -45 -4 -63 -19 -76 -32 -29 -56 -17 -59 30 -2
33 2 48 23 73 41 48 55 41 55 -27z"/>
<path d="M2695 1484 c-110 -22 -127 -28 -155 -54 -25 -23 -30 -36 -30 -73 0
-48 17 -71 47 -65 14 3 17 11 15 44 -4 49 16 70 75 80 l42 6 -4 -33 c-2 -19
-7 -55 -10 -81 -5 -42 -9 -48 -29 -48 -33 0 -53 -25 -36 -45 7 -8 21 -15 31
-15 38 0 12 -107 -31 -130 -31 -16 -79 -5 -112 27 -24 23 -28 24 -34 10 -13
-34 5 -65 49 -86 53 -26 80 -26 133 -2 46 21 74 68 82 138 l5 43 58 0 c39 0
63 5 73 16 33 33 8 54 -64 54 l-56 0 4 43 c1 23 5 57 8 75 l5 33 100 -2 c104
-2 124 5 117 37 -2 15 -16 20 -58 26 -60 7 -193 8 -225 2z"/>
<path d="M1727 1420 c-92 -24 -170 -89 -209 -178 -26 -58 -36 -193 -18 -247
40 -122 189 -182 348 -141 79 20 114 42 110 70 -4 25 -14 25 -93 -4 -78 -29
-189 -26 -232 6 -68 51 -94 132 -74 232 25 124 107 200 223 209 133 9 204 -79
168 -209 -15 -51 -57 -100 -84 -96 -17 2 -21 10 -20 43 0 22 4 61 8 87 7 42 6
48 -10 54 -11 3 -27 10 -37 15 -46 25 -134 -35 -157 -107 -14 -42 -8 -111 12
-130 7 -8 28 -16 45 -20 25 -5 37 -1 56 18 l24 24 27 -23 c31 -26 56 -29 94
-9 68 35 105 108 105 207 0 86 -30 143 -91 177 -48 27 -135 37 -195 22z m69
-217 c-3 -10 -8 -36 -12 -58 -12 -72 -45 -104 -73 -71 -17 21 -3 82 26 117 28
33 68 41 59 12z"/>
</g>
</svg>
